<svg preserveAspectRatio="none" overflow="visible" style="display: block;" width="493.586" height="525.006" viewBox="0 0 493.586 525.006" fill="none" xmlns="http://www.w3.org/2000/svg">
<g id="Element 1 - R Star" opacity="0.75">
<g id="Vector" opacity="0.3" filter="url(#filter0_f_0_9)">
<path d="M280.91 427.909C280.91 427.909 223.732 387.902 184.34 392.302C144.948 396.702 101.493 443.555 101.493 443.555C101.493 443.555 137.826 390.986 133.594 351.576C129.361 312.165 77.9239 265.006 77.9239 265.006C77.9239 265.006 135.101 305.013 174.493 300.613C213.885 296.213 392.093 81.4516 392.093 81.4516C392.093 81.4516 221.007 301.928 225.24 341.339C229.472 380.749 280.91 427.909 280.91 427.909Z" fill="#F73145"/>
</g>
<path id="Vector_2" opacity="0.1" d="M271.884 420.875C265.889 417.181 257.482 412.302 247.838 407.558C228.606 398.1 204.235 389.073 184.23 391.308C164.242 393.54 143.343 406.506 127.531 418.788C119.604 424.945 112.916 430.963 108.209 435.441C107.903 435.732 107.607 436.019 107.318 436.297C107.526 435.955 107.742 435.603 107.96 435.241C111.312 429.676 115.739 421.844 120.034 412.772C128.602 394.675 136.736 371.466 134.589 351.469C132.439 331.454 118.35 309.615 104.952 292.887C98.2329 284.498 91.6491 277.347 86.745 272.294C86.42 271.959 86.1005 271.635 85.7907 271.319C86.1664 271.553 86.5519 271.795 86.9491 272.04C92.9442 275.733 101.35 280.614 110.995 285.357C130.227 294.816 154.599 303.842 174.605 301.607C177.246 301.312 180.378 300.151 183.892 298.313C187.42 296.468 191.397 293.905 195.741 290.741C204.431 284.413 214.658 275.632 225.794 265.244C248.07 244.464 274.06 217.183 298.804 190.056C323.551 162.926 347.065 135.935 364.392 115.728C365.463 114.478 366.509 113.253 367.532 112.057C366.586 113.314 365.615 114.6 364.627 115.916C348.65 137.207 327.39 166.007 306.261 196.041C285.135 226.071 264.128 257.351 248.663 283.597C240.932 296.718 234.574 308.604 230.277 318.457C228.129 323.384 226.488 327.822 225.45 331.665C224.416 335.494 223.962 338.803 224.246 341.446C226.395 361.461 240.483 383.3 253.881 400.028C260.6 408.417 267.185 415.567 272.089 420.62C272.414 420.955 272.734 421.28 273.044 421.596C272.668 421.362 272.282 421.12 271.884 420.875Z" stroke="#F73145" stroke-width="2"/>
</g>
<defs>
<filter id="filter0_f_0_9" x="27.9239" y="31.4516" width="414.169" height="462.103" filterUnits="userSpaceOnUse" color-interpolation-filters="sRGB">
<feFlood flood-opacity="0" result="BackgroundImageFix"/>
<feBlend mode="normal" in="SourceGraphic" in2="BackgroundImageFix" result="shape"/>
<feGaussianBlur stdDeviation="25" result="effect1_foregroundBlur_0_9"/>
</filter>
</defs>
</svg>
